<svg width="32" height="33" viewBox="0 0 32 33" fill="none" xmlns="http://www.w3.org/2000/svg">
<path d="M17 4.5V3.5C17 3.23478 16.8946 2.98043 16.7071 2.79289C16.5196 2.60536 16.2652 2.5 16 2.5C15.7348 2.5 15.4804 2.60536 15.2929 2.79289C15.1054 2.98043 15 3.23478 15 3.5V4.5C15 4.76522 15.1054 5.01957 15.2929 5.20711C15.4804 5.39464 15.7348 5.5 16 5.5C16.2652 5.5 16.5196 5.39464 16.7071 5.20711C16.8946 5.01957 17 4.76522 17 4.5ZM7.51 6.6C7.3187 6.43617 7.07262 6.35057 6.82095 6.36029C6.56927 6.37001 6.33053 6.47434 6.15244 6.65244C5.97434 6.83053 5.87001 7.06927 5.86029 7.32095C5.85057 7.57262 5.93617 7.8187 6.1 8.01L6.81 8.72C7.0013 8.88383 7.24738 8.96943 7.49905 8.95971C7.75073 8.94999 7.98947 8.84566 8.16756 8.66756C8.34566 8.48947 8.44999 8.25073 8.45971 7.99905C8.46943 7.74738 8.38383 7.5013 8.22 7.31L7.51 6.6ZM4 17.5C4.26522 17.5 4.51957 17.3946 4.70711 17.2071C4.89464 17.0196 5 16.7652 5 16.5C5 16.2348 4.89464 15.9804 4.70711 15.7929C4.51957 15.6054 4.26522 15.5 4 15.5H3C2.73478 15.5 2.48043 15.6054 2.29289 15.7929C2.10536 15.9804 2 16.2348 2 16.5C2 16.7652 2.10536 17.0196 2.29289 17.2071C2.48043 17.3946 2.73478 17.5 3 17.5H4ZM6.1 26.4C6.28736 26.5862 6.54081 26.6908 6.805 26.6908C7.06919 26.6908 7.32264 26.5862 7.51 26.4L8.22 25.69C8.38383 25.4987 8.46943 25.2526 8.45971 25.0009C8.44999 24.7493 8.34566 24.5105 8.16756 24.3324C7.98947 24.1543 7.75073 24.05 7.49905 24.0403C7.24738 24.0306 7.0013 24.1162 6.81 24.28L6.1 24.99C5.91375 25.1774 5.80921 25.4308 5.80921 25.695C5.80921 25.9592 5.91375 26.2126 6.1 26.4ZM25.19 24.28C24.9987 24.1162 24.7526 24.0306 24.5009 24.0403C24.2493 24.05 24.0105 24.1543 23.8324 24.3324C23.6543 24.5105 23.55 24.7493 23.5403 25.0009C23.5306 25.2526 23.6162 25.4987 23.78 25.69L24.49 26.4C24.6813 26.5638 24.9274 26.6494 25.1791 26.6397C25.4307 26.63 25.6695 26.5257 25.8476 26.3476C26.0257 26.1695 26.13 25.9307 26.1397 25.6791C26.1494 25.4274 26.0638 25.1813 25.9 24.99L25.19 24.28ZM29 15.5H28C27.7348 15.5 27.4804 15.6054 27.2929 15.7929C27.1054 15.9804 27 16.2348 27 16.5C27 16.7652 27.1054 17.0196 27.2929 17.2071C27.4804 17.3946 27.7348 17.5 28 17.5H29C29.2652 17.5 29.5196 17.3946 29.7071 17.2071C29.8946 17.0196 30 16.7652 30 16.5C30 16.2348 29.8946 15.9804 29.7071 15.7929C29.5196 15.6054 29.2652 15.5 29 15.5ZM25.9 6.6C25.7126 6.41375 25.4592 6.30921 25.195 6.30921C24.9308 6.30921 24.6774 6.41375 24.49 6.6L23.78 7.31C23.6753 7.39965 23.5903 7.50996 23.5303 7.63403C23.4703 7.75809 23.4365 7.89323 23.4312 8.03095C23.4259 8.16867 23.4491 8.306 23.4994 8.43432C23.5496 8.56265 23.6259 8.6792 23.7234 8.77665C23.8208 8.8741 23.9374 8.95036 24.0657 9.00064C24.194 9.05091 24.3313 9.07412 24.4691 9.0688C24.6068 9.06348 24.7419 9.02975 24.866 8.96973C24.99 8.9097 25.1004 8.82468 25.19 8.72L25.9 8.01C26.0863 7.82264 26.1908 7.56919 26.1908 7.305C26.1908 7.04081 26.0863 6.78736 25.9 6.6ZM7 16.5C7.00219 17.9778 7.36826 19.4324 8.06588 20.7352C8.7635 22.038 9.77121 23.149 11 23.97V29.5C11 29.7652 11.1054 30.0196 11.2929 30.2071C11.4804 30.3946 11.7348 30.5 12 30.5H20C20.2652 30.5 20.5196 30.3946 20.7071 30.2071C20.8946 30.0196 21 29.7652 21 29.5V23.97C22.2933 23.1059 23.3406 21.9213 24.0397 20.5318C24.7388 19.1423 25.0659 17.5954 24.989 16.0419C24.9121 14.4883 24.4339 12.9812 23.601 11.6676C22.7682 10.3539 21.6091 9.27853 20.2368 8.5463C18.8644 7.81408 17.3258 7.45001 15.7709 7.48961C14.2159 7.52921 12.6978 7.97112 11.3645 8.77225C10.0313 9.57338 8.92841 10.7064 8.16348 12.0607C7.39856 13.4151 6.9977 14.9446 7 16.5ZM13 28.5V26.5H19V28.5H13ZM16 9.5C17.5402 9.50083 19.0372 10.0096 20.2589 10.9476C21.4807 11.8855 22.3589 13.2002 22.7576 14.688C23.1563 16.1757 23.0532 17.7534 22.4643 19.1766C21.8753 20.5998 20.8334 21.789 19.5 22.56C19.3474 22.6481 19.2208 22.775 19.133 22.9277C19.0452 23.0805 18.9993 23.2538 19 23.43V24.5H17V18.5H19C19.2652 18.5 19.5196 18.3946 19.7071 18.2071C19.8946 18.0196 20 17.7652 20 17.5C20 17.2348 19.8946 16.9804 19.7071 16.7929C19.5196 16.6054 19.2652 16.5 19 16.5H13C12.7348 16.5 12.4804 16.6054 12.2929 16.7929C12.1054 16.9804 12 17.2348 12 17.5C12 17.7652 12.1054 18.0196 12.2929 18.2071C12.4804 18.3946 12.7348 18.5 13 18.5H15V24.5H13V23.42C13.0007 23.2438 12.9548 23.0705 12.867 22.9177C12.7792 22.765 12.6526 22.6381 12.5 22.55C11.1715 21.7769 10.1344 20.588 9.54886 19.1668C8.96327 17.7457 8.86173 16.1713 9.2599 14.6867C9.65807 13.2021 10.5338 11.8898 11.752 10.9524C12.9701 10.015 14.4629 9.5046 16 9.5Z" fill="#439D45"/>
</svg>
